<?xml version="1.0" standalone="no"?><!DOCTYPE svg PUBLIC "-//W3C//DTD SVG 1.1//EN" "http://www.w3.org/Graphics/SVG/1.1/DTD/svg11.dtd"><svg t="1548066697859" class="icon" style="" viewBox="0 0 1024 1024" version="1.1" xmlns="http://www.w3.org/2000/svg" p-id="3273" xmlns:xlink="http://www.w3.org/1999/xlink" width="200" height="200"><defs><style type="text/css"></style></defs><path d="M312.288 16" p-id="3274" fill="#d81e06"></path><path d="M778.08 74.352 291.808 74.352c-12.672 0-22.944-13.056-22.944-29.168C268.88 29.056 279.136 16 291.808 16L778.08 16c12.656 0 22.944 13.056 22.944 29.184C801.008 61.296 790.736 74.352 778.08 74.352z" p-id="3275" fill="#d81e06"></path><path d="M842.304 191.056 227.6 191.056c-12.672 0-22.944-13.056-22.944-29.168 0-16.128 10.272-29.184 22.944-29.184l614.704 0c12.656 0 22.944 13.056 22.944 29.184C865.232 178 854.96 191.056 842.304 191.056z" p-id="3276" fill="#d81e06"></path><path d="M814.768 307.776 200.08 307.776c-12.672 0-22.944-13.072-22.944-29.168 0-16.128 10.272-29.184 22.944-29.184l614.688 0c12.688 0 22.944 13.056 22.944 29.184C837.696 294.688 827.456 307.776 814.768 307.776z" p-id="3277" fill="#d81e06"></path><path d="M750.544 424.464 172.544 424.464c-12.672 0-22.944-13.056-22.944-29.184s10.272-29.184 22.944-29.184l578 0c12.656 0 22.944 13.056 22.944 29.184S763.2 424.464 750.544 424.464z" p-id="3278" fill="#d81e06"></path><path d="M704.672 541.168 200.08 541.168c-12.672 0-22.944-13.04-22.944-29.168 0-16.112 10.272-29.184 22.944-29.184l504.592 0c12.688 0 22.944 13.056 22.944 29.184C727.616 528.128 717.36 541.168 704.672 541.168z" p-id="3279" fill="#d81e06"></path><path d="M704.672 657.888 291.808 657.888c-12.672 0-22.944-13.056-22.944-29.184 0-16.112 10.272-29.168 22.944-29.168l412.864 0c12.688 0 22.944 13.056 22.944 29.168C727.616 644.832 717.36 657.888 704.672 657.888z" p-id="3280" fill="#d81e06"></path><path d="M750.544 774.576 420.256 774.576c-12.656 0-22.944-13.056-22.944-29.168s10.288-29.184 22.944-29.184l330.304 0c12.656 0 22.944 13.072 22.944 29.184S763.2 774.576 750.544 774.576z" p-id="3281" fill="#d81e06"></path><path d="M823.952 891.296l-238.56 0c-12.656 0-22.912-13.056-22.912-29.184 0-16.112 10.256-29.168 22.912-29.168l238.56 0c12.656 0 22.944 13.056 22.944 29.168C846.896 878.24 836.608 891.296 823.952 891.296z" p-id="3282" fill="#d81e06"></path><path d="M851.456 1008l-100.912 0c-12.656 0-22.944-13.056-22.944-29.168 0-16.128 10.288-29.184 22.944-29.184l100.912 0c12.688 0 22.944 13.056 22.944 29.184C874.384 994.944 864.144 1008 851.456 1008z" p-id="3283" fill="#d81e06"></path></svg>