<?xml version="1.0" standalone="no"?><!DOCTYPE svg PUBLIC "-//W3C//DTD SVG 1.1//EN" "http://www.w3.org/Graphics/SVG/1.1/DTD/svg11.dtd"><svg t="1548122041126" class="icon" style="" viewBox="0 0 1024 1024" version="1.1" xmlns="http://www.w3.org/2000/svg" p-id="2689" xmlns:xlink="http://www.w3.org/1999/xlink" width="200" height="200"><defs><style type="text/css"></style></defs><path d="M656.7936 68.608c-69.9392 19.8656-109.2608 49.8688-130.048 71.2704 26.7264 1.2288 53.1456 6.4512 79.1552 13.9264 61.6448 9.9328 166.6048 44.3392 269.2096 160.4608C1047.6544 509.7472 988.16 841.728 915.456 953.6512c0 0 35.9424-117.6576 9.3184-260.096-18.3296-97.6896-47.9232-135.7824-64.6144-150.016-0.3072 2.4576-0.1024 4.9152-0.4096 7.3728-0.7168 63.2832-19.1488 170.1888-114.3808 287.3344-164.5568 202.3424-501.3504 197.632-623.5136 143.9744 0 0 121.7536 16.384 257.7408-33.1776 108.1344-39.424 134.7584-80.5888 141.1072-95.744-91.4432 10.24-185.2416-10.4448-257.1264-67.072-6.0416-4.7104-11.264-10.1376-16.7936-15.2576-40.0384-29.3888-82.5344-69.9392-124.1088-126.6688-156.9792-214.6304-66.56-507.904 14.5408-613.9904 0 0-51.0976 102.0928-34.9184 245.9648 7.4752 66.6624 27.7504 108.7488 44.7488 133.8368 5.8368-34.6112 16.4864-68.3008 33.5872-99.4304 4.096-7.4752 8.8064-14.4384 13.5168-21.504 22.4256-43.6224 55.0912-91.4432 103.424-140.8C483.328-41.3696 787.1488 0.2048 904.8064 62.976c0 0-108.8512-33.792-248.0128 5.632zM410.2144 421.7856c-44.1344 55.808-34.2016 137.1136 22.1184 181.4528 56.32 44.3392 137.728 35.1232 181.8624-20.6848 44.1344-55.808 34.2016-137.1136-22.1184-181.5552-56.32-44.3392-137.728-35.1232-181.8624 20.7872z" p-id="2690" fill="#cdcdcd"></path></svg>