<?xml version="1.0" standalone="no"?><!DOCTYPE svg PUBLIC "-//W3C//DTD SVG 1.1//EN" "http://www.w3.org/Graphics/SVG/1.1/DTD/svg11.dtd"><svg width="32.0625" height="32" viewBox="0 0 32.0625 32" version="1.1" xmlns="http://www.w3.org/2000/svg" xmlns:xlink="http://www.w3.org/1999/xlink"><defs><style type="text/css"><![CDATA[
@font-face { font-family: ifont; src: url(http://at.alicdn.com/t/font_1442373896_4754455.eot?#iefix) format(embedded-opentype), url(http://at.alicdn.com/t/font_1442373896_4754455.woff) format(woff), url(http://at.alicdn.com/t/font_1442373896_4754455.ttf) format(truetype), url(http://at.alicdn.com/t/font_1442373896_4754455.svg#ifont) format(svg); }

]]></style></defs><g class="transform-group"><g transform="scale(0.03125, 0.03125)"><path d="M957.044633 352.678912C914.098619 429.545271 779.467987 534.808805 612.802969 489.976832 458.58529 448.512644 345.158241 512.446703 298.979152 654.917543 298.979152 654.917543 171.164919 181.757012 160.145522 141.720766 174.640475 116.125589 309.6483-96.610748 541.45978 53.188395 773.729278 202.933654 924.875536 309.921495 1025.07392 130.809138 1025.07392 130.809138 1000.044531 275.812553 957.044633 352.678912ZM286.774294 1021.41354C257.137773 1029.657881 226.42356 1011.391007 218.394757 980.649852L1.940384 146.193187C-6.088419 115.31732 11.53184 83.875666 41.249188 75.685209 70.966536 67.440867 101.626864 85.492203 109.655667 116.287243L326.190867 950.797793C334.165786 981.56589 316.626354 1013.196141 286.774294 1021.41354Z" fill="#ffffff"></path></g></g></svg>