<?xml version="1.0" standalone="no"?><!DOCTYPE svg PUBLIC "-//W3C//DTD SVG 1.1//EN" "http://www.w3.org/Graphics/SVG/1.1/DTD/svg11.dtd"><svg width="32" height="32" viewBox="0 0 32 32" version="1.1" xmlns="http://www.w3.org/2000/svg" xmlns:xlink="http://www.w3.org/1999/xlink"><defs><style type="text/css"><![CDATA[
@font-face { font-family: ifont; src: url(http://at.alicdn.com/t/font_1442373896_4754455.eot?#iefix) format(embedded-opentype), url(http://at.alicdn.com/t/font_1442373896_4754455.woff) format(woff), url(http://at.alicdn.com/t/font_1442373896_4754455.ttf) format(truetype), url(http://at.alicdn.com/t/font_1442373896_4754455.svg#ifont) format(svg); }

]]></style></defs><g class="transform-group"><g transform="scale(0.03125, 0.03125)"><path d="M64.303027 928.32087l895.392924 0L959.69595 678.635181l-895.392924 0L64.303027 928.32087zM126.952902 740.737588l41.408085 0 0 62.364373 42.138726 0.376577 0-62.741973 41.530882 0 0 62.364373 41.304731 0.376577 0-62.741973 41.508369 0 0 62.364373 42.160215 0.376577 0-62.741973 62.323441 0 0 62.364373 41.304731 0.376577 0-62.741973 62.34493 0 0 62.364373 42.139749 0.376577 0-62.741973 41.529859 0 0 62.364373 41.304731 0.376577 0-62.741973 62.326511 0 0 62.364373 42.159192 0.376577 0-62.741973 62.323441 0 0 62.364373 41.304731 0.376577 0-62.741973 20.9788 0 0 124.851543L126.952902 865.580944 126.952902 740.737588zM461.018374 275.233552c7.764847-12.126178 22.033829-12.999059 40.572044-12.999059 18.762319 0 30.045293 0.172939 37.586037 9.575076 51.429323 64.896032-30.329772 88.556918-30.329772 88.556918-17.237593 13.355169-34.252105 20.9788-38.419008 31.162744-4.125971 10.18292 0.914836 37.951357 0 64.642253l62.324464 0c0.184195-12.654204-1.89107-26.243711 0-32.32215 3.00852-9.472745 21.99392-25.225521 31.16172-32.320103 17.095353-13.234419 25.166169-23.804149 31.182186-32.323173 10.287297-14.004969 31.16479-44.210921 31.16479-64.640206 0-33.4396-7.339152-47.608298-31.16479-64.642253-23.781636-16.993023-57.525158-30.430056-93.50665-30.430056-27.379581 0-50.453089 6.566556-69.255317 18.527982-29.759791 18.773576-53.524031 64.042595-55.413054 108.865453l62.323441 0C439.245488 313.957505 453.311855 287.267633 461.018374 275.233552zM501.590418 487.859183c-17.033955 0-30.836309 14.738679-30.836309 32.951483 0 18.194384 13.801331 32.951483 30.836309 32.951483s30.817889-14.757099 30.817889-32.951483C532.408307 502.598886 518.624373 487.859183 501.590418 487.859183zM64.465732 636.903731l832.620251-0.036839 0 0.036839 62.609966-0.040932-0.162706-166.483732L751.377414 95.699596l-474.386334-0.020466-0.416486 5.951549-3.953032-5.931083L64.465732 470.378044l-0.162706 166.483732 0.162706 0L64.465732 636.903731zM709.746248 158.145833l187.339736 312.233234L897.085984 574.456471 127.752104 574.456471l-0.508583-63.071478 187.008184-353.240183L709.746248 158.14481z" fill="#ffffff"></path></g></g></svg>