<?xml version="1.0" standalone="no"?><!DOCTYPE svg PUBLIC "-//W3C//DTD SVG 1.1//EN" "http://www.w3.org/Graphics/SVG/1.1/DTD/svg11.dtd"><svg width="32" height="32" viewBox="0 0 32 32" version="1.1" xmlns="http://www.w3.org/2000/svg" xmlns:xlink="http://www.w3.org/1999/xlink"><defs><style type="text/css"><![CDATA[
@font-face { font-family: ifont; src: url(http://at.alicdn.com/t/font_1442373896_4754455.eot?#iefix) format(embedded-opentype), url(http://at.alicdn.com/t/font_1442373896_4754455.woff) format(woff), url(http://at.alicdn.com/t/font_1442373896_4754455.ttf) format(truetype), url(http://at.alicdn.com/t/font_1442373896_4754455.svg#ifont) format(svg); }

]]></style></defs><g class="transform-group"><g transform="scale(0.03125, 0.03125)"><path d="M924.634 806.134c-1.744-1.378-3.825-2.785-6.273-4.163-10.406-3.825-18.822-10.191-25.28-19.036-6.397-8.874-9.61-19.221-9.61-31.064 0-12.15 3.826-23.046 11.477-32.595 7.652-9.549 16.834-16.252 27.606-20.077 2.816-1.040 5.509-3.244 8.142-6.519 2.57-3.306 3.519-7.927 2.815-13.834-1.378-10.069-4.070-20.077-8.079-29.994-4.011-9.915-8.601-17.323-13.805-22.188-2.815-2.756-6.151-4.316-10.16-4.684-4.009-0.366-7.406 0.336-10.161 2.082-10.437 4.866-21.761 6.855-33.941 5.998-12.151-0.888-22.433-5.479-30.79-13.833-8.293-8.356-13.374-18.119-15.118-29.229-1.714-11.141-0.337-21.729 4.192-31.829 0.704-1.377 1.378-3.733 2.081-7.039 0.704-3.306 0.185-6.336-1.561-9.12-2.815-4.53-6.519-8.692-11.232-12.518-4.651-3.826-9.793-6.979-15.425-9.396-5.508-2.449-11.17-4.378-16.924-5.755-5.755-1.407-11.080-2.081-15.916-2.081-3.183 0-6.213 1.469-9.15 4.438-2.938 2.938-5.142 5.814-6.519 8.6-3.826 10.436-10.437 19.036-19.832 25.831-9.396 6.794-20.17 10.191-32.352 10.191-11.813 0-22.097-3.581-30.789-10.711-8.69-7.162-14.966-15.396-18.791-24.791-1.041-3.122-2.846-6.183-5.448-9.151-2.632-2.97-6.212-4.438-10.711-4.438-3.459 0-8.173 0.613-14.079 1.838-5.907 1.254-11.997 3.060-18.272 5.478-6.273 2.448-12.088 5.509-17.475 9.15-5.418 3.643-9.151 7.896-11.232 12.764-1.010 2.081-1.285 4.529-0.766 7.313 0.521 2.785 1.133 5.233 1.837 7.315 0.336 2.081 0.795 5.539 1.285 10.438 0.551 4.865 0.551 10.252 0 16.158-0.49 5.907-1.743 11.906-3.642 18.026-1.929 6.061-4.958 11.202-9.12 15.396-8.692 8.325-18.7 13.282-29.994 14.844-11.324 1.561-22.188 0.274-32.625-3.918-3.122-1.041-5.998-1.745-8.6-2.081-2.601-0.336-5.325 0.336-8.11 2.081-3.458 2.081-6.672 5.325-9.64 9.641-2.938 4.377-5.57 9.151-7.836 14.354-2.264 5.233-4.101 10.62-5.478 16.19-1.376 5.57-2.081 10.62-2.081 15.149 0 4.132 1.071 8.233 3.153 12.242 2.081 4.011 4.682 6.521 7.743 7.5 10.406 4.191 19.801 10.772 28.157 19.831 8.354 9.060 12.517 19.68 12.517 31.83 0 11.845-4.163 22.525-12.517 32.105-8.356 9.579-17.721 16.435-28.157 20.628-5.938 2.081-9.396 6.947-10.437 14.599-0.704 4.192-0.336 9.487 1.041 15.915 1.407 6.458 3.396 12.701 5.999 18.792 2.632 6.060 5.57 11.66 8.875 16.71 3.335 5.019 6.887 8.233 10.712 9.61 4.896 2.082 9.763 2.449 14.629 1.070 7.651-2.447 15.118-3.856 22.434-4.192 6.273-0.337 12.854 0.245 19.832 1.836 6.946 1.562 12.855 4.928 17.721 10.161 8.019 8.692 12.457 18.181 13.313 28.433 0.857 10.283-0.611 19.403-4.437 27.423-2.786 5.906-4.102 10.527-3.918 13.834 0.184 3.274 1.132 6.151 2.877 8.6 2.449 3.459 6.091 6.947 10.956 10.405 4.867 3.49 10.345 6.55 16.437 9.151 6.090 2.603 12.18 4.774 18.271 6.52 6.091 1.775 11.569 2.632 16.436 2.632 4.193 0 8.020-0.949 11.446-2.847 3.49-1.928 6.091-4.957 7.835-9.151 3.826-10.436 10.529-19.557 20.108-27.392 9.548-7.834 20.261-11.752 32.073-11.752 12.211 0 22.894 3.918 32.106 11.752 9.211 7.835 15.73 17.109 19.556 27.912h0.521c1.102 2.756 2.999 5.387 5.753 7.836 2.816 2.418 5.724 3.642 8.845 3.642 4.562 0 9.764-0.703 15.67-2.051 5.938-1.407 11.631-3.305 16.987-5.753 5.355-2.449 10.344-5.142 14.874-8.111 4.468-2.938 7.835-5.814 9.915-8.601 4.499-6.978 5.021-13.895 1.562-20.872-4.53-10.101-6.090-20.689-4.714-31.83 1.378-11.141 6.306-21.056 14.661-29.748 3.765-4.163 8.447-7.162 13.803-8.877 5.355-1.712 10.742-2.847 16.129-3.365 5.417-0.49 10.681-0.337 15.945 0.519 5.203 0.889 9.58 1.838 13.038 2.878 3.825 1.408 7.284 2.082 10.406 2.082 3.152 0 6.794-1.041 10.987-3.152 4.132-2.082 8.019-5.54 11.478-10.437 3.458-4.866 6.396-10.346 8.845-16.435 2.448-6.061 4.191-12.090 5.202-17.997 1.103-5.906 1.254-10.926 0.551-15.12-1.379-4.865-4.012-8.874-7.837-11.996zM794.745 795.422c-5.907 13.742-13.987 25.801-24.271 36.267-10.284 10.438-22.373 18.609-36.299 24.516-13.864 5.906-28.677 8.876-44.316 8.876s-30.329-2.97-44.072-8.876c-13.711-5.938-25.738-14.078-35.99-24.516-10.254-10.466-18.364-22.555-24.271-36.267-5.908-13.741-8.876-28.432-8.876-44.072 0-15.639 2.968-30.36 8.876-44.071 5.906-13.742 14.017-25.771 24.271-36.023 10.221-10.252 22.249-18.363 35.96-24.271 13.742-5.905 28.463-8.875 44.103-8.875 15.608 0 30.452 2.97 44.316 8.875 13.956 5.907 26.015 14.019 36.299 24.271 10.283 10.253 18.363 22.281 24.271 36.023 5.906 13.711 8.844 28.401 8.844 44.071-0.001 15.609-2.939 30.331-8.845 44.072zM447.758 763.067c0.66-1.058 1.337-2.114 1.892-3.229 0.168-0.488 0.352-0.971 0.502-1.465 0.416-1.447 0.829-2.897 1.109-4.378 0.040-0.212 0.075-0.39 0.108-0.553 0.101-1.382 0.196-2.766 0.185-4.151-0.012-1.513-0.022-3.029-0.158-4.537 0-0.004 0-0.006-0.001-0.010-0.557-2.644-1.264-5.243-2.229-7.77-0.011-0.027-0.019-0.049-0.029-0.075-0.102-0.218-0.196-0.439-0.3-0.656-0.585-1.207-1.173-2.412-1.802-3.597-1.282-2.413-2.613-4.797-4-7.15-2.819-4.784-5.773-9.494-8.482-14.342-6.984-12.498-12.643-25.983-13.102-40.497-0.453-14.331 4.216-30.311 12.491-42.073 15.909-22.611 40.613-35.419 67.636-39.573 5.537-0.851 11.047-0.29 15.731 1.791 1.887-0.979 3.739-2.019 5.522-3.145 0.447-0.283 0.896-0.566 1.34-0.857 0.018-0.016 0.038-0.034 0.056-0.050 0.704-0.652 1.396-1.319 2.063-2.013 0.677-1.030 1.993-2.957 2.465-3.893 0.079-0.156 0.155-0.313 0.233-0.47 0.006-0.016 0.012-0.032 0.017-0.048 1.175-3.475 2.044-7.039 2.646-10.658 0.078-0.468 0.177-1.139 0.264-1.751 0.196-1.751 0.382-3.503 0.558-5.256 0.451-4.489 0.989-8.957 1.582-13.427-0.206-5.884 0.188-11.784 1.381-17.638 3.101-15.211 13.345-28.688 26.794-36.331 0.020-0.012 0.041-0.022 0.061-0.033 2.772-5.169 7.361-9.244 13.289-10.223 6.13-1.013 12.309-1.966 18.49-2.513 1.12-0.572 2.29-1.073 3.51-1.487 16.408-5.567 34.794-1.528 46.472 11.572 3.739 4.194 7.022 8.756 10.128 13.431 5.805 3.647 10.961 7.93 15.937 12.43 1.418 0.793 2.858 1.549 4.328 2.253 0.688 0.337 1.386 0.655 2.082 0.976 1.349 0.492 2.698 0.989 4.078 1.389 1.487 0.432 6.462 1.172 6.236 1.288 1.014 0.036 2.027 0.028 3.039-0.029 1.029-0.232 2.059-0.473 3.063-0.796 0.604-0.194 1.632-0.629 2.402-0.964 0.365-0.188 0.733-0.373 1.092-0.575 2.275-1.28 4.502-2.648 6.628-4.168 0.444-0.317 1.377-1.035 1.946-1.471 0.506-0.413 1.020-0.815 1.518-1.237 2.444-2.074 4.877-4.173 7.217-6.366 8.754-8.206 18.869-15.928 29.974-20.679 14.266-6.104 28.057-9.311 43.603-6.801 6.331 1.022 12.028 3.334 17.182 6.524v-197.786l-282.605-256h-335.587c-48.775 0-88.313 35.816-88.313 80v672c0 44.184 39.538 80 88.313 80h234.45c-3.506-11.991-5.738-24.443-5.731-36.832 0.009-15.631 3.063-33.799 12.624-46.649 4.353-5.851 8.934-10.018 14.564-14.505 1.919-1.529 3.865-3.089 5.513-4.918 0.008-0.011 0.016-0.018 0.025-0.029zM465.25 90.5c18.226 0 33 14.774 33 33s-14.774 33-33 33-33-14.774-33-33 14.774-33 33-33zM191.5 156.5c-18.226 0-33-14.774-33-33s14.774-33 33-33 33 14.774 33 33-14.774 33-33 33zM328.375 156.5c-18.226 0-33-14.774-33-33s14.774-33 33-33 33 14.774 33 33-14.774 33-33 33z" fill="#ffffff"></path></g></g></svg>