<?xml version="1.0" standalone="no"?><!DOCTYPE svg PUBLIC "-//W3C//DTD SVG 1.1//EN" "http://www.w3.org/Graphics/SVG/1.1/DTD/svg11.dtd"><svg width="32" height="32" viewBox="0 0 32 32" version="1.1" xmlns="http://www.w3.org/2000/svg" xmlns:xlink="http://www.w3.org/1999/xlink"><defs><style type="text/css"><![CDATA[
@font-face { font-family: ifont; src: url(http://at.alicdn.com/t/font_1442373896_4754455.eot?#iefix) format(embedded-opentype), url(http://at.alicdn.com/t/font_1442373896_4754455.woff) format(woff), url(http://at.alicdn.com/t/font_1442373896_4754455.ttf) format(truetype), url(http://at.alicdn.com/t/font_1442373896_4754455.svg#ifont) format(svg); }

]]></style></defs><g class="transform-group"><g transform="scale(0.03125, 0.03125)"><path d="M64.303027 674.886811l0 243.847727 895.392924 0L959.69595 674.886811 64.303027 674.886811zM898.107243 857.762885 125.89071 857.762885 125.89071 735.858464l40.316218 0 0 60.971653 41.051975 0 0-60.971653 40.59558 0 0 60.971653 40.255843 0 0-60.971653 60.931744 0 0 60.971653 41.051975 0 0-60.971653 60.953234 0 0 60.971653 40.2364 0 0-60.971653 61.745273 0 0 60.971653 40.257889 0 0-60.971653 40.615023 0 0 60.971653 41.031509 0 0-60.971653 60.95221 0 0 60.971653 40.237423 0 0-60.971653 40.614 0 0 60.971653 41.051975 0 0-60.971653 40.315194 0L898.104173 857.762885zM227.277842 552.683585 410.313551 552.683585 410.313551 491.673046 227.277842 491.673046 227.277842 410.323273 64.580343 512.00921 227.277842 634.033357ZM573.010027 552.683585 796.720112 552.683585 796.720112 634.033357 939.081447 512.00921 796.720112 410.323273 796.720112 491.673046 573.010027 491.673046ZM446.836373 202.731284c11.361769-16.195867 38.034245-32.481785 65.163115-32.481785 27.467585 0 54.756091 19.402909 65.163115 32.481785 10.328229 13.196557 0 16.454764 0 32.502251 0 13.902638 0.715291 37.356816-8.620331 48.846498-5.143137 6.881734-15.589047 10.396791-23.971971 16.155958l-21.945825 20.674878c-25.222451 17.894555-37.09792 30.645974-43.195801 44.309158-6.036483 13.643742-31.220049 61.687968-32.592302 97.477079l97.733928 0c0.25992-16.942881 15.332197-51.123354 18.114566-59.264778 4.387937-12.69002 11.895935-15.331173 25.321712-24.845874l25.340131-24.844851c30.069853-31.419594 61.548798-48.37987 61.548798-118.508068 0-44.805462-2.979868-67.943438-32.592302-97.476055-29.41289-29.313629-77.654614-32.492018-130.304741-32.492018-40.058344 0-73.840752 8.798387-101.368712 24.845874-43.533492 25.163099-58.748009 77.556377-61.528332 137.614218l97.733928 0C446.836373 250.406097 435.574888 218.887242 446.836373 202.731284zM447.054337 543.886221c0 27.16878 21.789259 49.193399 48.65821 49.193399 26.853601 0 48.63979-22.024619 48.63979-49.193399 0-27.149337-21.786189-49.174979-48.63979-49.174979C468.843596 494.712265 447.054337 516.736884 447.054337 543.886221z" fill="#ffffff"></path></g></g></svg>