<?xml version="1.0" standalone="no"?><!DOCTYPE svg PUBLIC "-//W3C//DTD SVG 1.1//EN" "http://www.w3.org/Graphics/SVG/1.1/DTD/svg11.dtd"><svg width="32" height="32" viewBox="0 0 32 32" version="1.1" xmlns="http://www.w3.org/2000/svg" xmlns:xlink="http://www.w3.org/1999/xlink"><defs><style type="text/css"><![CDATA[
@font-face { font-family: ifont; src: url(http://at.alicdn.com/t/font_1442373896_4754455.eot?#iefix) format(embedded-opentype), url(http://at.alicdn.com/t/font_1442373896_4754455.woff) format(woff), url(http://at.alicdn.com/t/font_1442373896_4754455.ttf) format(truetype), url(http://at.alicdn.com/t/font_1442373896_4754455.svg#ifont) format(svg); }

]]></style></defs><g class="transform-group"><g transform="scale(0.03125, 0.03125)"><path d="M512.156566 65.654302c-247.469208 0-448.081225 200.612017-448.081225 448.081225s200.612017 448.081225 448.081225 448.081225 448.081225-200.612017 448.081225-448.081225S759.625774 65.654302 512.156566 65.654302zM512.156566 925.485289c-227.403197 0-411.749762-184.346565-411.749762-411.749762S284.753369 101.985766 512.156566 101.985766 923.906328 286.332331 923.906328 513.735527 739.558739 925.485289 512.156566 925.485289zM693.209108 497.970472l-10.777461-10.777461c-1.532913-1.532913-3.313465-2.663666-5.211698-3.406586L454.717366 261.282818c-6.033413-6.03546-15.817244-6.03546-21.850657 0l-10.92584 10.92584c-6.03546 6.033413-6.03546 15.817244 0 21.850657l216.037335 216.037335-214.167754 214.167754c-5.950526 5.951549-5.950526 15.601326 0 21.550829l10.777461 10.777461c5.950526 5.950526 15.59928 5.950526 21.550829 0l217.672578-217.672578c3.75758-0.141216 7.474228-1.629103 10.342556-4.498454l10.92584-10.92584c5.384637-5.383614 5.950526-13.745049 1.726318-19.772322C696.073342 501.623675 694.886307 499.647671 693.209108 497.970472z" fill="#ffffff"></path></g></g></svg>