<?xml version="1.0" standalone="no"?><!DOCTYPE svg PUBLIC "-//W3C//DTD SVG 1.1//EN" "http://www.w3.org/Graphics/SVG/1.1/DTD/svg11.dtd"><svg width="32" height="32" viewBox="0 0 32 32" version="1.1" xmlns="http://www.w3.org/2000/svg" xmlns:xlink="http://www.w3.org/1999/xlink"><defs><style type="text/css"><![CDATA[
@font-face { font-family: ifont; src: url(http://at.alicdn.com/t/font_1442373896_4754455.eot?#iefix) format(embedded-opentype), url(http://at.alicdn.com/t/font_1442373896_4754455.woff) format(woff), url(http://at.alicdn.com/t/font_1442373896_4754455.ttf) format(truetype), url(http://at.alicdn.com/t/font_1442373896_4754455.svg#ifont) format(svg); }

]]></style></defs><g class="transform-group"><g transform="scale(0.03125, 0.03125)"><path d="M511.487835 958.599478c-246.662843 0-447.396633-200.683648-447.396633-447.397656 0-246.662843 200.73379-447.372074 447.396633-447.372074 246.663866 0 447.397656 200.708208 447.397656 447.372074C958.885492 757.915829 758.151701 958.599478 511.487835 958.599478zM511.487835 109.959368c-221.246987 0-401.267013 179.995467-401.267013 401.242454s180.020026 401.267013 401.267013 401.267013c221.24801 0 401.264966-180.020026 401.264966-401.267013S732.735845 109.959368 511.487835 109.959368zM526.897803 739.253794c-7.854898 0-15.511275-4.003174-19.812231-11.209296L384.102586 523.110035c-4.352121-7.305383-4.352121-16.411785 0-23.715121l122.982986-204.936509c6.554276-10.957563 20.712741-14.559601 31.619138-7.906064 10.907421 6.504134 14.46034 20.713764 7.906064 31.620162L430.784792 511.201821l115.825982 193.128579c6.554276 10.906397 3.00238 25.015743-7.906064 31.620162C535.001365 738.152716 530.902 739.253794 526.897803 739.253794z" fill="#ffffff"></path></g></g></svg>