<?xml version="1.0" standalone="no"?><!DOCTYPE svg PUBLIC "-//W3C//DTD SVG 1.1//EN" "http://www.w3.org/Graphics/SVG/1.1/DTD/svg11.dtd"><svg width="32" height="32" viewBox="0 0 32 32" version="1.1" xmlns="http://www.w3.org/2000/svg" xmlns:xlink="http://www.w3.org/1999/xlink"><defs><style type="text/css"><![CDATA[
@font-face { font-family: ifont; src: url(http://at.alicdn.com/t/font_1442373896_4754455.eot?#iefix) format(embedded-opentype), url(http://at.alicdn.com/t/font_1442373896_4754455.woff) format(woff), url(http://at.alicdn.com/t/font_1442373896_4754455.ttf) format(truetype), url(http://at.alicdn.com/t/font_1442373896_4754455.svg#ifont) format(svg); }

]]></style></defs><g class="transform-group"><g transform="scale(0.03125, 0.03125)"><path d="M942.848 553.6c-11.456 11.392-26.368 17.088-41.28 17.088-6.656 0-13.376-1.344-19.84-3.712l0 314.88c0 43.008-34.816 77.888-77.824 77.888l-136.256 0-19.52 0L609.344 959.744c-21.504 0-38.912-17.408-38.912-38.912l0-19.456 0-19.52L570.432 745.6c0-10.688-8.704-19.456-19.456-19.456L473.088 726.144c-10.752 0-19.456 8.768-19.456 19.456l0 136.256 0 19.52 0 19.456c0 21.504-17.408 38.912-38.912 38.912L375.744 959.744 356.288 959.744 220.032 959.744c-43.008 0-77.824-34.88-77.824-77.888L142.208 565.952C121.28 573.504 97.024 568.832 80.512 551.808c-22.464-23.104-21.952-60.032 1.216-82.56l79.936-77.952L161.664 220.096c0-21.504 17.408-38.912 38.912-38.912l77.888 0c21.44 0 38.912 17.408 38.912 38.912l0 19.456 162.944-158.848c22.912-22.272 59.456-21.952 82.048 0.64l380.544 389.696C965.76 493.888 965.696 530.816 942.848 553.6zM220.032 920.832l136.256 0 19.456 0 19.456 0c10.752 0 19.456-8.704 19.456-19.456l0-19.52 0-155.712c0-21.504 17.408-38.912 38.912-38.912l116.8 0c21.504 0 38.912 17.408 38.912 38.912l0 155.712 0 19.52c0 10.752 8.768 19.456 19.52 19.456l19.456 0 19.52 0 136.256 0c21.504 0 38.848-17.408 38.848-38.912L842.88 535.68 520.32 204.672 181.12 535.424l0 346.432C181.12 903.36 198.528 920.832 220.032 920.832zM278.464 239.616c0-10.752-8.704-19.456-19.456-19.456L220.032 220.16c-10.752 0-19.456 8.704-19.456 19.456l0 113.792 77.888-75.904L278.464 239.616zM915.392 498.56 534.784 108.864C529.792 103.872 524.032 103.168 521.024 103.168c-5.12 0-9.92 1.92-13.568 5.504L108.8 497.216c-7.68 7.488-7.872 19.776-0.384 27.52 4.992 5.184 10.88 5.888 13.952 5.888 5.12 0 9.92-1.984 13.568-5.504L142.208 519.04 142.208 512.064l7.104 0 371.52-362.112 353.472 362.112 7.552 0 0 7.808 6.016 6.144c4.992 4.992 10.816 5.696 13.824 5.696s8.768-0.768 13.76-5.696c4.928-4.992 5.696-10.752 5.696-13.76C921.088 509.312 920.384 503.488 915.392 498.56zM512 336.896c43.008 0 77.888 34.88 77.888 77.888 0 42.944-34.88 77.824-77.888 77.824S434.112 457.728 434.112 414.784C434.112 371.776 468.992 336.896 512 336.896zM512 453.696c21.504 0 38.912-17.408 38.912-38.912S533.504 375.872 512 375.872 473.088 393.28 473.088 414.784 490.496 453.696 512 453.696z" fill="#ffffff"></path></g></g></svg>