<?xml version="1.0" standalone="no"?><!DOCTYPE svg PUBLIC "-//W3C//DTD SVG 1.1//EN" "http://www.w3.org/Graphics/SVG/1.1/DTD/svg11.dtd"><svg width="32" height="32" viewBox="0 0 32 32" version="1.1" xmlns="http://www.w3.org/2000/svg" xmlns:xlink="http://www.w3.org/1999/xlink"><defs><style type="text/css"><![CDATA[
@font-face { font-family: ifont; src: url(http://at.alicdn.com/t/font_1442373896_4754455.eot?#iefix) format(embedded-opentype), url(http://at.alicdn.com/t/font_1442373896_4754455.woff) format(woff), url(http://at.alicdn.com/t/font_1442373896_4754455.ttf) format(truetype), url(http://at.alicdn.com/t/font_1442373896_4754455.svg#ifont) format(svg); }

]]></style></defs><g class="transform-group"><g transform="scale(0.03125, 0.03125)"><path d="M389.613268 760.326244l244.754732 0 0 57.525073L389.613268 817.851317 389.613268 760.326244zM389.613268 855.370927l244.754732 0 0 37.51961L389.613268 892.890537 389.613268 855.370927zM389.613268 930.410146l244.754732 0 0 37.51961L389.613268 967.929756 389.613268 930.410146zM515.390439 1023.950049c41.240976 0 51.34361-37.257366 102.680976-74.78322L412.709463 949.166829C450.828488 986.686439 474.149463 1023.950049 515.390439 1023.950049zM558.198634 108.40039c0 16.777366-13.580488 30.382829-30.332878 30.382829l-14.248585 0c-16.758634 0-30.339122-13.605463-30.339122-30.382829L483.278049 36.601756C483.271805 19.82439 496.858537 6.218927 513.610927 6.218927l14.248585 0c16.75239 0 30.332878 13.605463 30.332878 30.382829L558.19239 108.40039zM341.822439 153.662439c8.379317 14.535805 3.402927 33.111415-11.101659 41.50322l-4.039805 2.341463c-14.510829 8.391805-33.061463 3.409171-41.447024-11.12039l-39.673756-68.814049c-8.379317-14.529561-3.402927-33.111415 11.107902-41.50322l4.039805-2.33522c14.510829-8.391805 33.067707-3.409171 41.447024 11.12039L341.822439 153.662439zM182.084683 289.673366c14.510829 8.391805 19.48722 26.973659 11.107902 41.50322l-2.33522 4.046049c-8.379317 14.529561-26.929951 19.512195-41.447024 11.12039l-68.714146-39.729951c-14.510829-8.391805-19.480976-26.973659-11.107902-41.50322l2.33522-4.046049c8.379317-14.529561 26.929951-19.512195 41.44078-11.12039L182.084683 289.673366zM144.852293 541.109073c0 16.777366-13.580488 30.376585-30.339122 30.376585L42.826927 571.485659C26.068293 571.485659 12.487805 557.886439 12.487805 541.109073l0-14.273561c0-16.777366 13.580488-30.376585 30.339122-30.376585L114.513171 496.458927c16.758634 0 30.339122 13.59922 30.339122 30.376585L144.852293 541.109073zM191.481756 715.55122c8.379317 14.529561 3.402927 33.117659-11.101659 41.50322l-68.714146 39.736195c-14.510829 8.391805-33.067707 3.409171-41.447024-11.12039l-2.33522-4.052293c-8.379317-14.529561-3.402927-33.105171 11.107902-41.50322l68.714146-39.729951c14.510829-8.385561 33.067707-3.409171 41.447024 11.12039L191.481756 715.55122zM958.170537 738.403902c14.517073 8.398049 19.48722 26.973659 11.107902 41.50322l-2.341463 4.046049c-8.373073 14.535805-26.929951 19.518439-41.44078 11.12039l-68.714146-39.729951c-14.510829-8.385561-19.474732-26.973659-11.095415-41.50322l2.328976-4.046049c8.379317-14.529561 26.929951-19.512195 41.447024-11.12039L958.170537 738.403902zM1011.505951 541.109073c0 16.777366-13.580488 30.376585-30.339122 30.376585l-71.692488 0c-16.758634 0-30.339122-13.59922-30.339122-30.376585l0-14.273561c0-16.777366 13.580488-30.376585 30.339122-30.376585l71.692488 0c16.758634 0 30.339122 13.59922 30.339122 30.376585L1011.505951 541.109073zM967.56761 266.826927c8.373073 14.535805 3.402927 33.111415-11.101659 41.509463l-68.714146 39.729951c-14.510829 8.391805-33.067707 3.409171-41.44078-11.12039l-2.341463-4.046049c-8.379317-14.529561-3.402927-33.111415 11.107902-41.50322l68.714146-39.729951c14.510829-8.391805 33.067707-3.415415 41.447024 11.12039L967.56761 266.826927zM780.494049 74.35239c14.510829 8.391805 19.493463 26.973659 11.107902 41.50322l-39.673756 68.814049c-8.379317 14.529561-26.929951 19.512195-41.44078 11.12039l-4.039805-2.341463c-14.510829-8.391805-19.48722-26.973659-11.107902-41.50322l39.673756-68.814049c8.379317-14.529561 26.929951-19.512195 41.44078-11.12039L780.494049 74.35239zM515.390439 233.490732c-158.101854 0-286.270439 128.349659-286.270439 286.68878 0 158.326634 128.162341 286.682537 286.270439 286.682537s286.270439-128.355902 286.270439-286.682537C801.660878 361.84039 673.498537 233.490732 515.390439 233.490732zM694.453073 456.685268l-205.436878 203.195317L359.417756 536.401171c-11.201561-10.677073-11.644878-28.434732-0.986537-39.64878 10.664585-11.214049 28.378537-11.669854 39.592585-0.986537l90.268098 86.003512 166.818341-164.982634c11.001756-10.883122 28.728195-10.770732 39.598829 0.249756C705.573463 428.050732 705.461073 445.802146 694.453073 456.685268z" fill="#ffffff"></path></g></g></svg>