<?xml version="1.0" standalone="no"?><!DOCTYPE svg PUBLIC "-//W3C//DTD SVG 1.1//EN" "http://www.w3.org/Graphics/SVG/1.1/DTD/svg11.dtd"><svg width="32" height="32" viewBox="0 0 32 32" version="1.1" xmlns="http://www.w3.org/2000/svg" xmlns:xlink="http://www.w3.org/1999/xlink"><defs><style type="text/css"><![CDATA[
@font-face { font-family: ifont; src: url(http://at.alicdn.com/t/font_1442373896_4754455.eot?#iefix) format(embedded-opentype), url(http://at.alicdn.com/t/font_1442373896_4754455.woff) format(woff), url(http://at.alicdn.com/t/font_1442373896_4754455.ttf) format(truetype), url(http://at.alicdn.com/t/font_1442373896_4754455.svg#ifont) format(svg); }

]]></style></defs><g class="transform-group"><g transform="scale(0.03125, 0.03125)"><path d="M970.653885 932.543032 662.900356 621.727077C778.18871 483.022015 771.298507 275.228435 642.18165 144.81113c-66.113406-66.771753-154.035383-103.548354-247.561216-103.548354-93.496155 0-181.418133 36.775578-247.502885 103.548354-136.422539 137.796366-136.422539 361.988428 0 499.784794 66.085775 66.771753 154.007753 103.547331 247.502885 103.547331 84.233831 0 163.91274-29.844725 227.218078-84.555791l307.468015 310.500776c5.689816 5.77554 13.188911 8.647961 20.659352 8.647961 7.471465 0 14.941906-2.873444 20.630698-8.591679C982.03147 962.682469 982.03147 944.03476 970.653885 932.543032zM600.807686 603.049692c-55.052036 55.623855-128.292038 86.25141-206.186227 86.25141-77.865536 0-151.075861-30.627555-206.157574-86.25141-113.752308-114.897843-113.752308-301.795511 0-416.693354 55.08069-55.623855 128.292038-86.252433 206.157574-86.252433 77.894189 0 151.134192 30.627555 206.186227 86.252433C714.587624 301.254182 714.587624 488.152872 600.807686 603.049692zM541.41563 364.607068 431.830396 364.607068l0-110.414739c0-16.262382-13.073272-29.421077-29.221706-29.421077-16.090103 0-29.192029 13.158694-29.192029 29.421077l0 110.414739L263.830404 364.607068c-16.14741 0-29.221706 13.158694-29.221706 29.421077s13.073272 29.421077 29.221706 29.421077l109.586258 0 0 110.415762c0 16.261359 13.101926 29.420053 29.192029 29.420053 16.148433 0 29.221706-13.158694 29.221706-29.420053L431.830396 423.449221l109.586258 0c16.118756 0 29.221706-13.158694 29.221706-29.421077S557.534387 364.607068 541.41563 364.607068z" fill="#ffffff"></path></g></g></svg>