<?xml version="1.0" standalone="no"?><!DOCTYPE svg PUBLIC "-//W3C//DTD SVG 1.1//EN" "http://www.w3.org/Graphics/SVG/1.1/DTD/svg11.dtd"><svg width="32" height="32" viewBox="0 0 32 32" version="1.1" xmlns="http://www.w3.org/2000/svg" xmlns:xlink="http://www.w3.org/1999/xlink"><defs><style type="text/css"><![CDATA[
@font-face { font-family: ifont; src: url(http://at.alicdn.com/t/font_1442373896_4754455.eot?#iefix) format(embedded-opentype), url(http://at.alicdn.com/t/font_1442373896_4754455.woff) format(woff), url(http://at.alicdn.com/t/font_1442373896_4754455.ttf) format(truetype), url(http://at.alicdn.com/t/font_1442373896_4754455.svg#ifont) format(svg); }

]]></style></defs><g class="transform-group"><g transform="scale(0.03125, 0.03125)"><path d="M968.762738 926.032758 665.024827 619.272165c113.784032-136.895857 106.983883-341.978698-20.448542-470.694245-65.251747-65.900919-152.026551-102.19759-244.301852-102.19759-92.304978 0-179.051128 36.296671-244.302875 102.19759-134.641913 135.998417-134.641913 357.26587 0 493.264287 65.251747 65.899896 151.997897 102.19759 244.302875 102.19759 83.108148 0 161.745288-29.455869 224.223761-83.452667l303.429883 306.449507c5.643765 5.698792 13.044619 8.535397 20.417842 8.535397s14.745423-2.835581 20.360534-8.478092C979.991937 955.780269 979.991937 937.376107 968.762738 926.032758zM603.740601 600.838328c-54.333645 54.898331-126.61784 85.126796-203.467191 85.126796-76.878005 0-149.133546-30.228465-203.495845-85.126796-112.269476-113.397676-112.269476-297.858852 0-411.256528 54.362299-54.898331 126.61784-85.126796 203.495845-85.126796 76.849351 0 149.133546 30.228465 203.467191 85.126796C716.009054 302.980499 716.009054 487.440651 603.740601 600.838328zM546.344075 366.66903 264.580518 366.66903c-15.9366 0-28.839997 12.986779-28.839997 29.037337 0 16.049534 12.902373 29.037337 28.839997 29.037337l281.762533 0c15.90897 0 28.811343-12.987802 28.811343-29.037337C575.155418 379.656833 562.253045 366.66903 546.344075 366.66903z" fill="#ffffff"></path></g></g></svg>