<?xml version="1.0" standalone="no"?><!DOCTYPE svg PUBLIC "-//W3C//DTD SVG 1.1//EN" "http://www.w3.org/Graphics/SVG/1.1/DTD/svg11.dtd"><svg width="32" height="32" viewBox="0 0 32 32" version="1.1" xmlns="http://www.w3.org/2000/svg" xmlns:xlink="http://www.w3.org/1999/xlink"><defs><style type="text/css"><![CDATA[
@font-face { font-family: ifont; src: url(http://at.alicdn.com/t/font_1442373896_4754455.eot?#iefix) format(embedded-opentype), url(http://at.alicdn.com/t/font_1442373896_4754455.woff) format(woff), url(http://at.alicdn.com/t/font_1442373896_4754455.ttf) format(truetype), url(http://at.alicdn.com/t/font_1442373896_4754455.svg#ifont) format(svg); }

]]></style></defs><g class="transform-group"><g transform="scale(0.03125, 0.03125)"><path d="M188.134845 226.966245 76.755128 510.907109l495.771387 194.47218 183.488011-255.657704L188.134845 226.966245 188.134845 226.966245zM818.262242 549.553291l-56.570413 144.222729 93.712335 99.16451 98.998735-252.389264L818.262242 549.553291 818.262242 549.553291zM750.08856 504.604566l-115.787096 162.600285 99.151207 38.897915 70.722738-180.28097L750.08856 504.604566 750.08856 504.604566zM146.891512 614.614076l65.390289 25.858948-25.682939 56.326866L67.548442 696.79989l0 50.835805 152.501276 0 0-1.659803 39.561018-86.785575 71.861678 28.41619 22.25691-56.279794L169.136142 558.339398 146.891512 614.614076 146.891512 614.614076zM146.891512 614.614076" fill="#ffffff"></path></g></g></svg>