<?xml version="1.0" standalone="no"?><!DOCTYPE svg PUBLIC "-//W3C//DTD SVG 1.1//EN" "http://www.w3.org/Graphics/SVG/1.1/DTD/svg11.dtd"><svg width="32" height="32" viewBox="0 0 32 32" version="1.1" xmlns="http://www.w3.org/2000/svg" xmlns:xlink="http://www.w3.org/1999/xlink"><defs><style type="text/css"><![CDATA[
@font-face { font-family: ifont; src: url(http://at.alicdn.com/t/font_1442373896_4754455.eot?#iefix) format(embedded-opentype), url(http://at.alicdn.com/t/font_1442373896_4754455.woff) format(woff), url(http://at.alicdn.com/t/font_1442373896_4754455.ttf) format(truetype), url(http://at.alicdn.com/t/font_1442373896_4754455.svg#ifont) format(svg); }

]]></style></defs><g class="transform-group"><g transform="scale(0.03125, 0.03125)"><path d="M217.456149 517.886057l105.286951 0 0 117.909433-105.286951 0 0-117.909433ZM364.944248 423.520853l105.286951 0 0 212.273614-105.286951 0 0-212.273614ZM650.452817 798.536992c0-10.736529-7.735172-19.444864-17.293875-19.444864L390.810359 779.092128c-9.575076 0-17.311271 8.708336-17.311271 19.444864l0 77.875648L200.408891 876.41264l0 58.444087 623.150496 0 0-58.444087L650.452817 876.41264 650.452817 798.536992zM901.278469 89.144296 122.689808 89.144296c-32.238238 0-58.382689 26.097378-58.382689 58.367339l0 545.057907c0 32.194236 26.113751 58.368362 58.382689 58.368362l778.588661 0c32.238238 0 58.414411-26.128077 58.414411-58.368362L959.69288 147.510612C959.69288 115.287723 933.578106 89.144296 901.278469 89.144296zM901.278469 673.045883c0 10.736529-8.694009 19.446911-19.444864 19.446911L142.165372 692.492794c-10.782577 0-19.444864-8.710382-19.444864-19.446911L122.720507 166.971849c0-10.735505 8.66331-19.461237 19.444864-19.461237l739.668233 0c10.750855 0 19.444864 8.67866 19.444864 19.461237L901.278469 673.045883zM701.905676 329.217047l105.286951 0 0 306.577421-105.286951 0 0-306.577421ZM533.410124 234.883565l105.316627 0 0 400.911926-105.316627 0 0-400.911926Z" fill="#ffffff"></path></g></g></svg>